<?xml version="1.0" encoding="UTF-8" standalone="no"?>
<!-- Created with Inkscape (http://www.inkscape.org/) -->

<svg
   width="512"
   height="512"
   viewBox="0 0 512 512"
   version="1.1"
   id="svg1"
   inkscape:version="1.4 (e7c3feb100, 2024-10-09)"
   sodipodi:docname="bass.svg"
   xml:space="preserve"
   xmlns:inkscape="http://www.inkscape.org/namespaces/inkscape"
   xmlns:sodipodi="http://sodipodi.sourceforge.net/DTD/sodipodi-0.dtd"
   xmlns:xlink="http://www.w3.org/1999/xlink"
   xmlns="http://www.w3.org/2000/svg"
   xmlns:svg="http://www.w3.org/2000/svg"><sodipodi:namedview
     id="namedview1"
     pagecolor="#505050"
     bordercolor="#ffffff"
     borderopacity="1"
     inkscape:showpageshadow="0"
     inkscape:pageopacity="0"
     inkscape:pagecheckerboard="1"
     inkscape:deskcolor="#505050"
     inkscape:document-units="px"
     inkscape:zoom="1.7148438"
     inkscape:cx="301.77677"
     inkscape:cy="256"
     inkscape:window-width="1920"
     inkscape:window-height="1131"
     inkscape:window-x="0"
     inkscape:window-y="0"
     inkscape:window-maximized="1"
     inkscape:current-layer="layer1" /><defs
     id="defs1"><linearGradient
       id="linearGradient2"
       inkscape:collect="always"><stop
         style="stop-color:#c6abcd;stop-opacity:1;"
         offset="0"
         id="stop2" /><stop
         style="stop-color:#ffffff;stop-opacity:1;"
         offset="1"
         id="stop3" /></linearGradient><radialGradient
       inkscape:collect="always"
       xlink:href="#linearGradient2"
       id="radialGradient3"
       cx="256"
       cy="256"
       fx="256"
       fy="256"
       r="256"
       gradientUnits="userSpaceOnUse" /><filter
       id="filter0_i_18_18924"
       x="7.84644"
       y="6.49854"
       width="15.8594"
       height="15.3672"
       filterUnits="userSpaceOnUse"
       color-interpolation-filters="sRGB"><feFlood
         flood-opacity="0"
         result="BackgroundImageFix"
         id="feFlood34" /><feBlend
         mode="normal"
         in="SourceGraphic"
         in2="BackgroundImageFix"
         result="shape"
         id="feBlend34" /><feColorMatrix
         in="SourceAlpha"
         type="matrix"
         values="0 0 0 0 0 0 0 0 0 0 0 0 0 0 0 0 0 0 127 0"
         result="hardAlpha"
         id="feColorMatrix34" /><feOffset
         dx="-0.25"
         dy="0.25"
         id="feOffset34" /><feGaussianBlur
         stdDeviation="0.5"
         id="feGaussianBlur34" /><feComposite
         in2="hardAlpha"
         operator="arithmetic"
         k2="-1"
         k3="1"
         id="feComposite34" /><feColorMatrix
         type="matrix"
         values="0 0 0 0 0.866667 0 0 0 0 0.662745 0 0 0 0 0.690196 0 0 0 1 0"
         id="feColorMatrix35" /><feBlend
         mode="normal"
         in2="shape"
         result="effect1_innerShadow_18_18924"
         id="feBlend35" /></filter><filter
       id="filter1_f_18_18924"
       x="6.18384"
       y="8.59668"
       width="8.7478"
       height="9.24121"
       filterUnits="userSpaceOnUse"
       color-interpolation-filters="sRGB"><feFlood
         flood-opacity="0"
         result="BackgroundImageFix"
         id="feFlood35" /><feBlend
         mode="normal"
         in="SourceGraphic"
         in2="BackgroundImageFix"
         result="shape"
         id="feBlend36" /><feGaussianBlur
         stdDeviation="0.75"
         result="effect1_foregroundBlur_18_18924"
         id="feGaussianBlur36" /></filter><filter
       id="filter2_f_18_18924"
       x="14.4167"
       y="6.88672"
       width="10.0844"
       height="10.6133"
       filterUnits="userSpaceOnUse"
       color-interpolation-filters="sRGB"><feFlood
         flood-opacity="0"
         result="BackgroundImageFix"
         id="feFlood36" /><feBlend
         mode="normal"
         in="SourceGraphic"
         in2="BackgroundImageFix"
         result="shape"
         id="feBlend37" /><feGaussianBlur
         stdDeviation="0.75"
         result="effect1_foregroundBlur_18_18924"
         id="feGaussianBlur37" /></filter><filter
       id="filter3_i_18_18924"
       x="5.94202"
       y="20.4123"
       width="19.9495"
       height="9.88308"
       filterUnits="userSpaceOnUse"
       color-interpolation-filters="sRGB"><feFlood
         flood-opacity="0"
         result="BackgroundImageFix"
         id="feFlood37" /><feBlend
         mode="normal"
         in="SourceGraphic"
         in2="BackgroundImageFix"
         result="shape"
         id="feBlend38" /><feColorMatrix
         in="SourceAlpha"
         type="matrix"
         values="0 0 0 0 0 0 0 0 0 0 0 0 0 0 0 0 0 0 127 0"
         result="hardAlpha"
         id="feColorMatrix38" /><feOffset
         dy="-0.1"
         id="feOffset38" /><feGaussianBlur
         stdDeviation="0.15"
         id="feGaussianBlur38" /><feComposite
         in2="hardAlpha"
         operator="arithmetic"
         k2="-1"
         k3="1"
         id="feComposite38" /><feColorMatrix
         type="matrix"
         values="0 0 0 0 0.701961 0 0 0 0 0.533333 0 0 0 0 0.839216 0 0 0 1 0"
         id="feColorMatrix39" /><feBlend
         mode="normal"
         in2="shape"
         result="effect1_innerShadow_18_18924"
         id="feBlend39" /></filter><filter
       id="filter4_i_18_18924"
       x="5.94019"
       y="4.03916"
       width="20.0531"
       height="19.5766"
       filterUnits="userSpaceOnUse"
       color-interpolation-filters="sRGB"><feFlood
         flood-opacity="0"
         result="BackgroundImageFix"
         id="feFlood39" /><feBlend
         mode="normal"
         in="SourceGraphic"
         in2="BackgroundImageFix"
         result="shape"
         id="feBlend40" /><feColorMatrix
         in="SourceAlpha"
         type="matrix"
         values="0 0 0 0 0 0 0 0 0 0 0 0 0 0 0 0 0 0 127 0"
         result="hardAlpha"
         id="feColorMatrix40" /><feOffset
         dx="0.1"
         dy="-0.1"
         id="feOffset40" /><feGaussianBlur
         stdDeviation="0.25"
         id="feGaussianBlur40" /><feComposite
         in2="hardAlpha"
         operator="arithmetic"
         k2="-1"
         k3="1"
         id="feComposite40" /><feColorMatrix
         type="matrix"
         values="0 0 0 0 0.631373 0 0 0 0 0.54902 0 0 0 0 0.556863 0 0 0 1 0"
         id="feColorMatrix41" /><feBlend
         mode="normal"
         in2="shape"
         result="effect1_innerShadow_18_18924"
         id="feBlend41" /></filter><filter
       id="filter5_f_18_18924"
       x="7.08389"
       y="5.30752"
       width="17.8322"
       height="17.3078"
       filterUnits="userSpaceOnUse"
       color-interpolation-filters="sRGB"><feFlood
         flood-opacity="0"
         result="BackgroundImageFix"
         id="feFlood41" /><feBlend
         mode="normal"
         in="SourceGraphic"
         in2="BackgroundImageFix"
         result="shape"
         id="feBlend42" /><feGaussianBlur
         stdDeviation="0.2"
         result="effect1_foregroundBlur_18_18924"
         id="feGaussianBlur42" /></filter><filter
       id="filter6_ii_18_18924"
       x="18.9927"
       y="2.34817"
       width="11.0318"
       height="11.0191"
       filterUnits="userSpaceOnUse"
       color-interpolation-filters="sRGB"><feFlood
         flood-opacity="0"
         result="BackgroundImageFix"
         id="feFlood42" /><feBlend
         mode="normal"
         in="SourceGraphic"
         in2="BackgroundImageFix"
         result="shape"
         id="feBlend43" /><feColorMatrix
         in="SourceAlpha"
         type="matrix"
         values="0 0 0 0 0 0 0 0 0 0 0 0 0 0 0 0 0 0 127 0"
         result="hardAlpha"
         id="feColorMatrix43" /><feOffset
         dx="0.15"
         dy="0.15"
         id="feOffset43" /><feGaussianBlur
         stdDeviation="0.3"
         id="feGaussianBlur43" /><feComposite
         in2="hardAlpha"
         operator="arithmetic"
         k2="-1"
         k3="1"
         id="feComposite43" /><feColorMatrix
         type="matrix"
         values="0 0 0 0 0.831373 0 0 0 0 0.588235 0 0 0 0 0.427451 0 0 0 1 0"
         id="feColorMatrix44" /><feBlend
         mode="normal"
         in2="shape"
         result="effect1_innerShadow_18_18924"
         id="feBlend44" /><feColorMatrix
         in="SourceAlpha"
         type="matrix"
         values="0 0 0 0 0 0 0 0 0 0 0 0 0 0 0 0 0 0 127 0"
         result="hardAlpha"
         id="feColorMatrix45" /><feOffset
         dx="-0.15"
         dy="-0.15"
         id="feOffset45" /><feGaussianBlur
         stdDeviation="0.3"
         id="feGaussianBlur45" /><feComposite
         in2="hardAlpha"
         operator="arithmetic"
         k2="-1"
         k3="1"
         id="feComposite45" /><feColorMatrix
         type="matrix"
         values="0 0 0 0 0.94902 0 0 0 0 0.682353 0 0 0 0 0.576471 0 0 0 1 0"
         id="feColorMatrix46" /><feBlend
         mode="normal"
         in2="effect1_innerShadow_18_18924"
         result="effect2_innerShadow_18_18924"
         id="feBlend46" /></filter><filter
       id="filter7_ii_18_18924"
       x="1.70898"
       y="2.24817"
       width="11.2318"
       height="11.2191"
       filterUnits="userSpaceOnUse"
       color-interpolation-filters="sRGB"><feFlood
         flood-opacity="0"
         result="BackgroundImageFix"
         id="feFlood46" /><feBlend
         mode="normal"
         in="SourceGraphic"
         in2="BackgroundImageFix"
         result="shape"
         id="feBlend47" /><feColorMatrix
         in="SourceAlpha"
         type="matrix"
         values="0 0 0 0 0 0 0 0 0 0 0 0 0 0 0 0 0 0 127 0"
         result="hardAlpha"
         id="feColorMatrix47" /><feOffset
         dx="0.25"
         dy="-0.25"
         id="feOffset47" /><feGaussianBlur
         stdDeviation="0.3"
         id="feGaussianBlur47" /><feComposite
         in2="hardAlpha"
         operator="arithmetic"
         k2="-1"
         k3="1"
         id="feComposite47" /><feColorMatrix
         type="matrix"
         values="0 0 0 0 0.858824 0 0 0 0 0.556863 0 0 0 0 0.490196 0 0 0 1 0"
         id="feColorMatrix48" /><feBlend
         mode="normal"
         in2="shape"
         result="effect1_innerShadow_18_18924"
         id="feBlend48" /><feColorMatrix
         in="SourceAlpha"
         type="matrix"
         values="0 0 0 0 0 0 0 0 0 0 0 0 0 0 0 0 0 0 127 0"
         result="hardAlpha"
         id="feColorMatrix49" /><feOffset
         dx="-0.25"
         dy="0.25"
         id="feOffset49" /><feGaussianBlur
         stdDeviation="0.3"
         id="feGaussianBlur49" /><feComposite
         in2="hardAlpha"
         operator="arithmetic"
         k2="-1"
         k3="1"
         id="feComposite49" /><feColorMatrix
         type="matrix"
         values="0 0 0 0 1 0 0 0 0 0.917647 0 0 0 0 0.72549 0 0 0 1 0"
         id="feColorMatrix50" /><feBlend
         mode="normal"
         in2="effect1_innerShadow_18_18924"
         result="effect2_innerShadow_18_18924"
         id="feBlend50" /></filter><filter
       id="filter8_i_18_18924"
       x="11.1157"
       y="11.4045"
       width="3.85254"
       height="3.8363"
       filterUnits="userSpaceOnUse"
       color-interpolation-filters="sRGB"><feFlood
         flood-opacity="0"
         result="BackgroundImageFix"
         id="feFlood50" /><feBlend
         mode="normal"
         in="SourceGraphic"
         in2="BackgroundImageFix"
         result="shape"
         id="feBlend51" /><feColorMatrix
         in="SourceAlpha"
         type="matrix"
         values="0 0 0 0 0 0 0 0 0 0 0 0 0 0 0 0 0 0 127 0"
         result="hardAlpha"
         id="feColorMatrix51" /><feOffset
         dx="0.25"
         dy="-0.25"
         id="feOffset51" /><feGaussianBlur
         stdDeviation="0.5"
         id="feGaussianBlur51" /><feComposite
         in2="hardAlpha"
         operator="arithmetic"
         k2="-1"
         k3="1"
         id="feComposite51" /><feColorMatrix
         type="matrix"
         values="0 0 0 0 0.862745 0 0 0 0 0.545098 0 0 0 0 0.501961 0 0 0 1 0"
         id="feColorMatrix52" /><feBlend
         mode="normal"
         in2="shape"
         result="effect1_innerShadow_18_18924"
         id="feBlend52" /></filter><filter
       id="filter9_i_18_18924"
       x="17.1152"
       y="11.2545"
       width="4.00254"
       height="3.9863"
       filterUnits="userSpaceOnUse"
       color-interpolation-filters="sRGB"><feFlood
         flood-opacity="0"
         result="BackgroundImageFix"
         id="feFlood52" /><feBlend
         mode="normal"
         in="SourceGraphic"
         in2="BackgroundImageFix"
         result="shape"
         id="feBlend53" /><feColorMatrix
         in="SourceAlpha"
         type="matrix"
         values="0 0 0 0 0 0 0 0 0 0 0 0 0 0 0 0 0 0 127 0"
         result="hardAlpha"
         id="feColorMatrix53" /><feOffset
         dx="0.4"
         dy="-0.4"
         id="feOffset53" /><feGaussianBlur
         stdDeviation="0.5"
         id="feGaussianBlur53" /><feComposite
         in2="hardAlpha"
         operator="arithmetic"
         k2="-1"
         k3="1"
         id="feComposite53" /><feColorMatrix
         type="matrix"
         values="0 0 0 0 0.839216 0 0 0 0 0.533333 0 0 0 0 0.411765 0 0 0 1 0"
         id="feColorMatrix54" /><feBlend
         mode="normal"
         in2="shape"
         result="effect1_innerShadow_18_18924"
         id="feBlend54" /></filter><filter
       id="filter10_f_18_18924"
       x="11.763"
       y="11.4776"
       width="3.17168"
       height="3.12322"
       filterUnits="userSpaceOnUse"
       color-interpolation-filters="sRGB"><feFlood
         flood-opacity="0"
         result="BackgroundImageFix"
         id="feFlood54" /><feBlend
         mode="normal"
         in="SourceGraphic"
         in2="BackgroundImageFix"
         result="shape"
         id="feBlend55" /><feGaussianBlur
         stdDeviation="0.3"
         result="effect1_foregroundBlur_18_18924"
         id="feGaussianBlur55" /></filter><linearGradient
       id="paint0_linear_18_18924"
       x1="23.1209"
       y1="23.9484"
       x2="10.1993"
       y2="23.9484"
       gradientUnits="userSpaceOnUse"><stop
         stop-color="#F1469C"
         id="stop55" /><stop
         offset="1"
         stop-color="#CB235C"
         id="stop56" /></linearGradient><linearGradient
       id="paint1_linear_18_18924"
       x1="5.50964"
       y1="18.9095"
       x2="12.1949"
       y2="18.9095"
       gradientUnits="userSpaceOnUse"><stop
         offset="0.104478"
         stop-color="#C8615D"
         id="stop57" /><stop
         offset="1"
         stop-color="#C8615D"
         stop-opacity="0"
         id="stop58" /></linearGradient><radialGradient
       id="paint2_radial_18_18924"
       cx="0"
       cy="0"
       r="1"
       gradientUnits="userSpaceOnUse"
       gradientTransform="matrix(0,10.2091,-10.3073,0,15.9167,14.1384)"><stop
         offset="0.850472"
         stop-color="#DB2156"
         id="stop59" /><stop
         offset="1"
         stop-color="#DB2156"
         stop-opacity="0"
         id="stop60" /></radialGradient><linearGradient
       id="paint3_linear_18_18924"
       x1="8.56519"
       y1="23.7954"
       x2="9.85425"
       y2="23.7954"
       gradientUnits="userSpaceOnUse"><stop
         stop-color="#B497BF"
         id="stop61" /><stop
         offset="1"
         stop-color="#C19ED7"
         id="stop62" /></linearGradient><linearGradient
       id="paint4_linear_18_18924"
       x1="15.5339"
       y1="24.7793"
       x2="16.823"
       y2="24.7793"
       gradientUnits="userSpaceOnUse"><stop
         stop-color="#BA97D9"
         id="stop63" /><stop
         offset="1"
         stop-color="#CCA9ED"
         id="stop64" /></linearGradient><linearGradient
       id="paint5_linear_18_18924"
       x1="22.5027"
       y1="23.7954"
       x2="24.0027"
       y2="23.7954"
       gradientUnits="userSpaceOnUse"><stop
         stop-color="#CAB4E1"
         id="stop65" /><stop
         offset="1"
         stop-color="#E5D1F9"
         id="stop66" /></linearGradient><linearGradient
       id="paint6_linear_18_18924"
       x1="8.04199"
       y1="27.6381"
       x2="9.50972"
       y2="28.5773"
       gradientUnits="userSpaceOnUse"><stop
         stop-color="#CE9051"
         id="stop67" /><stop
         offset="1"
         stop-color="#CD8A4C"
         id="stop68" /></linearGradient><linearGradient
       id="paint7_linear_18_18924"
       x1="8.04175"
       y1="21.5454"
       x2="9.62769"
       y2="22.4204"
       gradientUnits="userSpaceOnUse"><stop
         stop-color="#CE9051"
         id="stop69" /><stop
         offset="1"
         stop-color="#CD8A4C"
         id="stop70" /></linearGradient><linearGradient
       id="paint8_linear_18_18924"
       x1="15.9167"
       y1="23.3892"
       x2="15.9167"
       y2="25.1704"
       gradientUnits="userSpaceOnUse"><stop
         offset="0.245614"
         stop-color="#E5A148"
         id="stop71" /><stop
         offset="1"
         stop-color="#D88E50"
         id="stop72" /></linearGradient><radialGradient
       id="paint9_radial_18_18924"
       cx="0"
       cy="0"
       r="1"
       gradientUnits="userSpaceOnUse"
       gradientTransform="matrix(9.5357529,9.8360794,-8.8613457,8.5907809,10.3869,8.03541)"><stop
         offset="0.158375"
         stop-color="#FFE4D8"
         id="stop73" /><stop
         offset="1"
         stop-color="#FED8D0"
         id="stop74" /></radialGradient><radialGradient
       id="paint10_radial_18_18924"
       cx="0"
       cy="0"
       r="1"
       gradientUnits="userSpaceOnUse"
       gradientTransform="matrix(0,11.1776,-13.0978,0,15.9011,10.4381)"><stop
         offset="0.673513"
         stop-color="#FFE4E3"
         stop-opacity="0"
         id="stop75" /><stop
         offset="1"
         stop-color="#FFE4E3"
         id="stop76" /></radialGradient><radialGradient
       id="paint11_radial_18_18924"
       cx="0"
       cy="0"
       r="1"
       gradientUnits="userSpaceOnUse"
       gradientTransform="matrix(5.6688872,7.696176,-7.9467482,5.8534549,15.4176,12.7282)"><stop
         offset="0.80895"
         stop-color="#F9D6D5"
         stop-opacity="0"
         id="stop77" /><stop
         offset="0.974856"
         stop-color="#D2ABA8"
         id="stop78" /></radialGradient><linearGradient
       id="paint12_linear_18_18924"
       x1="17.182"
       y1="14.7555"
       x2="23.1888"
       y2="8.11054"
       gradientUnits="userSpaceOnUse"><stop
         stop-color="#DAA9B3"
         id="stop79" /><stop
         offset="1"
         stop-color="#D6ADA7"
         id="stop80" /></linearGradient><radialGradient
       id="paint13_radial_18_18924"
       cx="0"
       cy="0"
       r="1"
       gradientUnits="userSpaceOnUse"
       gradientTransform="matrix(2.9435251,-8.6309912,17.600119,6.0023688,12.1949,29.7855)"><stop
         offset="0.187938"
         stop-color="#B791D7"
         id="stop81" /><stop
         offset="1"
         stop-color="#D3C4E2"
         id="stop82" /></radialGradient><linearGradient
       id="paint14_linear_18_18924"
       x1="15.9167"
       y1="4.13916"
       x2="15.9167"
       y2="23.6157"
       gradientUnits="userSpaceOnUse"><stop
         stop-color="#CBC2C8"
         id="stop83" /><stop
         offset="1"
         stop-color="#D4C9DE"
         id="stop84" /></linearGradient><radialGradient
       id="paint15_radial_18_18924"
       cx="0"
       cy="0"
       r="1"
       gradientUnits="userSpaceOnUse"
       gradientTransform="matrix(10.112664,-4.7144524,4.8298039,10.360097,15.0048,14.3184)"><stop
         offset="0.868116"
         stop-color="#D9C9D6"
         stop-opacity="0"
         id="stop85" /><stop
         offset="0.97971"
         stop-color="#F7EEF3"
         id="stop86" /></radialGradient><radialGradient
       id="paint16_radial_18_18924"
       cx="0"
       cy="0"
       r="1"
       gradientUnits="userSpaceOnUse"
       gradientTransform="matrix(1.3139846,1.1262727,-3.4460383,4.0203773,9.4108,7.47228)"><stop
         stop-color="#DFD1CA"
         id="stop87" /><stop
         offset="1"
         stop-color="#DFD1CA"
         stop-opacity="0"
         id="stop88" /></radialGradient><radialGradient
       id="paint17_radial_18_18924"
       cx="0"
       cy="0"
       r="1"
       gradientUnits="userSpaceOnUse"
       gradientTransform="matrix(-1.1638209,1.5016873,-6.5528764,-5.078537,8.26576,9.87498)"><stop
         stop-color="#9B7D91"
         id="stop89" /><stop
         offset="1"
         stop-color="#B29EAF"
         stop-opacity="0"
         id="stop90" /></radialGradient><radialGradient
       id="paint18_radial_18_18924"
       cx="0"
       cy="0"
       r="1"
       gradientUnits="userSpaceOnUse"
       gradientTransform="matrix(-0.82592443,-0.90102258,2.7795775,-2.5479061,23.095,8.48592)"><stop
         offset="0.00943351"
         stop-color="#A69690"
         id="stop91" /><stop
         offset="1"
         stop-color="#B9ACA8"
         stop-opacity="0"
         id="stop92" /></radialGradient><radialGradient
       id="paint19_radial_18_18924"
       cx="0"
       cy="0"
       r="1"
       gradientUnits="userSpaceOnUse"
       gradientTransform="matrix(2.447192,-7.3415543,8.1296917,2.7099053,16.6603,12.8069)"><stop
         offset="0.816176"
         stop-color="#B2969F"
         id="stop93" /><stop
         offset="0.972059"
         stop-color="#B2969F"
         stop-opacity="0"
         id="stop94" /></radialGradient><linearGradient
       id="paint20_linear_18_18924"
       x1="9.11272"
       y1="18.9525"
       x2="13.9006"
       y2="13.9614"
       gradientUnits="userSpaceOnUse"><stop
         stop-color="#E6DCE6"
         id="stop95" /><stop
         offset="1"
         stop-color="#E6DCE6"
         stop-opacity="0"
         id="stop96" /></linearGradient><linearGradient
       id="paint21_linear_18_18924"
       x1="23.8646"
       y1="7.17189"
       x2="24.9909"
       y2="8.59849"
       gradientUnits="userSpaceOnUse"><stop
         stop-color="#EBB589"
         id="stop97" /><stop
         offset="1"
         stop-color="#F5AD8E"
         id="stop98" /></linearGradient><radialGradient
       id="paint22_radial_18_18924"
       cx="0"
       cy="0"
       r="1"
       gradientUnits="userSpaceOnUse"
       gradientTransform="matrix(-1.1225307,1.0726387,-1.2732083,-1.3324295,29.6066,3.0693)"><stop
         stop-color="#FFE6B8"
         id="stop99" /><stop
         offset="1"
         stop-color="#FFC7A6"
         stop-opacity="0"
         id="stop100" /></radialGradient><radialGradient
       id="paint23_radial_18_18924"
       cx="0"
       cy="0"
       r="1"
       gradientUnits="userSpaceOnUse"
       gradientTransform="matrix(-6.3437826,-6.140901,4.1843289,-4.3225698,8.59641,8.63911)"><stop
         offset="0.878222"
         stop-color="#D7AE81"
         stop-opacity="0"
         id="stop101" /><stop
         offset="0.975288"
         stop-color="#D7AE81"
         id="stop102" /></radialGradient><radialGradient
       id="paint24_radial_18_18924"
       cx="0"
       cy="0"
       r="1"
       gradientUnits="userSpaceOnUse"
       gradientTransform="matrix(-0.81248858,-1.7187552,3.3543808,-1.5856802,11.3152,13.0141)"><stop
         offset="0.272359"
         stop-color="#E39472"
         id="stop103" /><stop
         offset="1"
         stop-color="#E39472"
         stop-opacity="0"
         id="stop104" /></radialGradient><radialGradient
       id="paint25_radial_18_18924"
       cx="0"
       cy="0"
       r="1"
       gradientUnits="userSpaceOnUse"
       gradientTransform="matrix(-0.06249884,-1.3517059,1.8938966,-0.08756811,13.4402,15.2408)"><stop
         stop-color="#DB8583"
         id="stop105" /><stop
         offset="1"
         stop-color="#DB8583"
         stop-opacity="0"
         id="stop106" /></radialGradient><linearGradient
       id="paint26_linear_18_18924"
       x1="14.1589"
       y1="12.2016"
       x2="13.3464"
       y2="13.0454"
       gradientUnits="userSpaceOnUse"><stop
         stop-color="#FFDDA8"
         id="stop107" /><stop
         offset="1"
         stop-color="#FFDDA8"
         stop-opacity="0"
         id="stop108" /></linearGradient><radialGradient
       id="paint27_radial_18_18924"
       cx="0"
       cy="0"
       r="1"
       gradientUnits="userSpaceOnUse"
       gradientTransform="matrix(-2.7812489,-2.8283427,2.876229,-2.8283378,14.1277,14.4829)"><stop
         offset="0.697047"
         stop-color="#E2A46F"
         stop-opacity="0"
         id="stop109" /><stop
         offset="1"
         stop-color="#E2A46F"
         id="stop110" /></radialGradient><radialGradient
       id="paint28_radial_18_18924"
       cx="0"
       cy="0"
       r="1"
       gradientUnits="userSpaceOnUse"
       gradientTransform="matrix(0.24944978,-1.7212079,1.7931068,0.25986988,18.1568,15.6666)"><stop
         stop-color="#DA8181"
         id="stop111" /><stop
         offset="1"
         stop-color="#D58B6A"
         stop-opacity="0"
         id="stop112" /></radialGradient><radialGradient
       id="paint29_radial_18_18924"
       cx="0"
       cy="0"
       r="1"
       gradientUnits="userSpaceOnUse"
       gradientTransform="matrix(-1.0726456,1.0489096,-1.2109311,-1.2383335,20.1275,12.3988)"><stop
         offset="0.114936"
         stop-color="#FFE5B0"
         id="stop113" /><stop
         offset="1"
         stop-color="#FDC596"
         stop-opacity="0"
         id="stop114" /></radialGradient></defs><g
     inkscape:label="Layer 1"
     inkscape:groupmode="layer"
     id="layer1"><circle
       style="display:inline;fill:url(#radialGradient3);stroke-width:1.52045"
       id="path1"
       cx="256"
       cy="256"
       r="256" /><circle
       style="display:inline;fill:none;fill-opacity:1;stroke:#e63c89;stroke-width:15.0873;stroke-opacity:1"
       id="path3"
       cx="256"
       cy="256"
       r="248.45634" /><path
       id="path3-06"
       style="display:inline;fill:none;stroke:#e63c89;stroke-width:10.3274;opacity:0"
       d="M 426.07091,256 A 170.07091,170.07091 0 0 1 256,426.07091 170.07091,170.07091 0 0 1 85.929092,256 170.07091,170.07091 0 0 1 256,85.929092 170.07091,170.07091 0 0 1 426.07091,256 Z" /><g
       style="fill:none"
       id="g4"
       transform="matrix(5.3454199,0,0,5.3454199,171.18561,169.02048)"><path
         d="M 5.94019,14.1384 H 25.8933 v 6.1804 c 0,5.51 -4.4666,9.9766 -9.9766,9.9766 -5.5099,0 -9.97651,-4.4667 -9.97651,-9.9766 z"
         fill="url(#paint0_linear_18_18924)"
         id="path1-5"
         style="fill:url(#paint0_linear_18_18924)" /><path
         d="M 5.94019,14.1384 H 25.8933 v 6.1804 c 0,5.51 -4.4666,9.9766 -9.9766,9.9766 -5.5099,0 -9.97651,-4.4667 -9.97651,-9.9766 z"
         fill="url(#paint1_linear_18_18924)"
         id="path2"
         style="fill:url(#paint1_linear_18_18924)" /><path
         d="M 5.94019,14.1384 H 25.8933 v 6.1804 c 0,5.51 -4.4666,9.9766 -9.9766,9.9766 -5.5099,0 -9.97651,-4.4667 -9.97651,-9.9766 z"
         fill="url(#paint2_radial_18_18924)"
         id="path3-0"
         style="fill:url(#paint2_radial_18_18924)" /><path
         d="M 9.85425,28.2427 C 9.17613,27.7231 8.56665,27.1185 8.04175,26.4446 v -6.7429 h 1.8125 z"
         fill="url(#paint3_linear_18_18924)"
         id="path4"
         style="fill:url(#paint3_linear_18_18924)" /><path
         d="m 16.823,30.2548 c -0.2985,0.0269 -0.6008,0.0406 -0.9063,0.0406 -0.3054,0 -0.6077,-0.0137 -0.9062,-0.0406 V 19.7017 h 1.8125 z"
         fill="url(#paint4_linear_18_18924)"
         id="path5"
         style="fill:url(#paint4_linear_18_18924)" /><path
         d="m 23.7917,26.4446 c -0.5249,0.6739 -1.1343,1.2785 -1.8125,1.7981 v -8.541 h 1.8125 z"
         fill="url(#paint5_linear_18_18924)"
         id="path6"
         style="fill:url(#paint5_linear_18_18924)" /><path
         d="m 23.7917,26.4446 c -0.5118,0.6571 -1.1041,1.2484 -1.762,1.7592 -0.0327,-0.0936 -0.0505,-0.1942 -0.0505,-0.299 V 25.311 c 0,-0.5005 0.4058,-0.9062 0.9063,-0.9062 0.5005,0 0.9062,0.4057 0.9062,0.9062 z"
         fill="#f3b050"
         id="path7" /><path
         d="M 9.80395,28.204 C 9.14607,27.6932 8.55383,27.1019 8.04199,26.445 v -1.134 c 0,-0.5005 0.40574,-0.9062 0.90625,-0.9062 0.50051,0 0.90625,0.4057 0.90625,0.9062 v 2.5938 c 0,0.1048 -0.0178,0.2055 -0.05054,0.2992 z"
         fill="url(#paint6_linear_18_18924)"
         id="path8"
         style="fill:url(#paint6_linear_18_18924)" /><path
         d="m 21.9792,18.7017 c 0,-0.5005 0.4058,-0.9063 0.9063,-0.9063 0.5005,0 0.9062,0.4058 0.9062,0.9063 v 2.5937 c 0,0.5005 -0.4057,0.9063 -0.9062,0.9063 -0.5005,0 -0.9063,-0.4058 -0.9063,-0.9063 z"
         fill="#f1b14c"
         id="path9" /><path
         d="m 8.04175,18.7017 c 0,-0.5005 0.40574,-0.9063 0.90625,-0.9063 0.50051,0 0.90625,0.4058 0.90625,0.9063 v 2.5937 c 0,0.5005 -0.40574,0.9063 -0.90625,0.9063 -0.50051,0 -0.90625,-0.4058 -0.90625,-0.9063 z"
         fill="url(#paint7_linear_18_18924)"
         id="path10"
         style="fill:url(#paint7_linear_18_18924)" /><path
         d="m 15.0105,21.6704 c 0,-0.5005 0.4057,-0.9062 0.9062,-0.9062 0.5006,0 0.9063,0.4057 0.9063,0.9062 v 2.5938 c 0,0.5005 -0.4057,0.9062 -0.9063,0.9062 -0.5005,0 -0.9062,-0.4057 -0.9062,-0.9062 z"
         fill="url(#paint8_linear_18_18924)"
         id="path11"
         style="fill:url(#paint8_linear_18_18924)" /><path
         d="m 16.823,30.2548 c -0.2985,0.0269 -0.6008,0.0406 -0.9063,0.0406 -0.3054,0 -0.6077,-0.0137 -0.9062,-0.0406 v -1.8969 c 0,-0.5005 0.4057,-0.9062 0.9062,-0.9062 0.5006,0 0.9063,0.4057 0.9063,0.9062 z"
         fill="#db8f4f"
         id="path12" /><g
         filter="url(#filter0_i_18_18924)"
         id="g14"><ellipse
           cx="15.9011"
           cy="14.0571"
           rx="7.8046899"
           ry="7.5585899"
           fill="url(#paint9_radial_18_18924)"
           id="ellipse12"
           style="fill:url(#paint9_radial_18_18924)" /><ellipse
           cx="15.9011"
           cy="14.0571"
           rx="7.8046899"
           ry="7.5585899"
           fill="url(#paint10_radial_18_18924)"
           id="ellipse13"
           style="fill:url(#paint10_radial_18_18924)" /><ellipse
           cx="15.9011"
           cy="14.0571"
           rx="7.8046899"
           ry="7.5585899"
           fill="url(#paint11_radial_18_18924)"
           id="ellipse14"
           style="fill:url(#paint11_radial_18_18924)" /></g><g
         filter="url(#filter1_f_18_18924)"
         id="g15"><path
           d="M 7.68384,11.6601 C 7.85635,11.088 8.06752,10.5604 8.28588,10.0967 l 2.52562,2.6883 c 0.411,-0.0959 0.8607,0.0145 1.1836,0.3324 l 1.0568,1.0405 c 0.5009,0.4933 0.5072,1.2992 0.0139,1.8001 -0.4932,0.5009 -1.2991,0.5072 -1.8001,0.014 L 10.209,14.9315 C 9.87333,14.601 9.75978,14.1301 9.86974,13.7047 Z"
           fill="#d3a1ac"
           id="path14" /></g><g
         filter="url(#filter2_f_18_18924)"
         id="g16"><path
           d="M 23.0011,9.95012 C 22.8286,9.37807 22.6174,8.85045 22.3991,8.38672 l -3.8622,4.06048 c -0.411,-0.0959 -0.8607,0.0145 -1.1836,0.3324 l -1.0568,1.0405 c -0.5009,0.4933 -0.5071,1.2992 -0.0139,1.8001 0.4932,0.5009 1.2991,0.5072 1.8001,0.014 l 1.0567,-1.0405 c 0.3357,-0.3305 0.4492,-0.8014 0.3393,-1.2268 z"
           fill="url(#paint12_linear_18_18924)"
           id="path15"
           style="fill:url(#paint12_linear_18_18924)" /></g><g
         filter="url(#filter3_i_18_18924)"
         id="g17"><path
           d="m 5.94202,20.5123 c 0.1031,5.4206 4.52948,9.7831 9.97468,9.7831 5.4453,0 9.8717,-4.3625 9.9748,-9.7831 -0.8091,4.711 -4.967,8.2987 -9.9748,8.2987 -5.0077,0 -9.16563,-3.5877 -9.97468,-8.2987 z"
           fill="url(#paint13_radial_18_18924)"
           id="path16"
           style="fill:url(#paint13_radial_18_18924)" /></g><g
         filter="url(#filter4_i_18_18924)"
         id="g22"><path
           fill-rule="evenodd"
           clip-rule="evenodd"
           d="m 25.8933,14.0571 c 0,5.339 -4.6381,9.5586 -9.9922,9.5586 -5.3541,0 -9.96091,-4.2986 -9.96091,-9.6376 0,-5.33894 4.60681,-9.83894 9.96091,-9.83894 5.3541,0 9.9922,4.21875 9.9922,9.91794 z m -9.9922,7.5586 c 4.3104,0 7.8047,-3.3841 7.8047,-7.5586 0,-4.17447 -3.4943,-7.55856 -7.8047,-7.55856 -4.3104,0 -7.80466,3.38409 -7.80466,7.55856 0,4.1745 3.49426,7.5586 7.80466,7.5586 z"
           fill="url(#paint14_linear_18_18924)"
           id="path17"
           style="fill:url(#paint14_linear_18_18924)" /><path
           fill-rule="evenodd"
           clip-rule="evenodd"
           d="m 25.8933,14.0571 c 0,5.339 -4.6381,9.5586 -9.9922,9.5586 -5.3541,0 -9.96091,-4.2986 -9.96091,-9.6376 0,-5.33894 4.60681,-9.83894 9.96091,-9.83894 5.3541,0 9.9922,4.21875 9.9922,9.91794 z m -9.9922,7.5586 c 4.3104,0 7.8047,-3.3841 7.8047,-7.5586 0,-4.17447 -3.4943,-7.55856 -7.8047,-7.55856 -4.3104,0 -7.80466,3.38409 -7.80466,7.55856 0,4.1745 3.49426,7.5586 7.80466,7.5586 z"
           fill="url(#paint15_radial_18_18924)"
           id="path18"
           style="fill:url(#paint15_radial_18_18924)" /><path
           fill-rule="evenodd"
           clip-rule="evenodd"
           d="m 25.8933,14.0571 c 0,5.339 -4.6381,9.5586 -9.9922,9.5586 -5.3541,0 -9.96091,-4.2986 -9.96091,-9.6376 0,-5.33894 4.60681,-9.83894 9.96091,-9.83894 5.3541,0 9.9922,4.21875 9.9922,9.91794 z m -9.9922,7.5586 c 4.3104,0 7.8047,-3.3841 7.8047,-7.5586 0,-4.17447 -3.4943,-7.55856 -7.8047,-7.55856 -4.3104,0 -7.80466,3.38409 -7.80466,7.55856 0,4.1745 3.49426,7.5586 7.80466,7.5586 z"
           fill="url(#paint16_radial_18_18924)"
           id="path19"
           style="fill:url(#paint16_radial_18_18924)" /><path
           fill-rule="evenodd"
           clip-rule="evenodd"
           d="m 25.8933,14.0571 c 0,5.339 -4.6381,9.5586 -9.9922,9.5586 -5.3541,0 -9.96091,-4.2986 -9.96091,-9.6376 0,-5.33894 4.60681,-9.83894 9.96091,-9.83894 5.3541,0 9.9922,4.21875 9.9922,9.91794 z m -9.9922,7.5586 c 4.3104,0 7.8047,-3.3841 7.8047,-7.5586 0,-4.17447 -3.4943,-7.55856 -7.8047,-7.55856 -4.3104,0 -7.80466,3.38409 -7.80466,7.55856 0,4.1745 3.49426,7.5586 7.80466,7.5586 z"
           fill="url(#paint17_radial_18_18924)"
           id="path20"
           style="fill:url(#paint17_radial_18_18924)" /><path
           fill-rule="evenodd"
           clip-rule="evenodd"
           d="m 25.8933,14.0571 c 0,5.339 -4.6381,9.5586 -9.9922,9.5586 -5.3541,0 -9.96091,-4.2986 -9.96091,-9.6376 0,-5.33894 4.60681,-9.83894 9.96091,-9.83894 5.3541,0 9.9922,4.21875 9.9922,9.91794 z m -9.9922,7.5586 c 4.3104,0 7.8047,-3.3841 7.8047,-7.5586 0,-4.17447 -3.4943,-7.55856 -7.8047,-7.55856 -4.3104,0 -7.80466,3.38409 -7.80466,7.55856 0,4.1745 3.49426,7.5586 7.80466,7.5586 z"
           fill="url(#paint18_radial_18_18924)"
           id="path21"
           style="fill:url(#paint18_radial_18_18924)" /><path
           fill-rule="evenodd"
           clip-rule="evenodd"
           d="m 25.8933,14.0571 c 0,5.339 -4.6381,9.5586 -9.9922,9.5586 -5.3541,0 -9.96091,-4.2986 -9.96091,-9.6376 0,-5.33894 4.60681,-9.83894 9.96091,-9.83894 5.3541,0 9.9922,4.21875 9.9922,9.91794 z m -9.9922,7.5586 c 4.3104,0 7.8047,-3.3841 7.8047,-7.5586 0,-4.17447 -3.4943,-7.55856 -7.8047,-7.55856 -4.3104,0 -7.80466,3.38409 -7.80466,7.55856 0,4.1745 3.49426,7.5586 7.80466,7.5586 z"
           fill="url(#paint19_radial_18_18924)"
           id="path22"
           style="fill:url(#paint19_radial_18_18924)" /></g><g
         filter="url(#filter5_f_18_18924)"
         id="g23"><ellipse
           cx="16"
           cy="13.9614"
           rx="8.3161602"
           ry="8.0539303"
           stroke="url(#paint20_linear_18_18924)"
           stroke-width="0.4"
           id="ellipse22"
           style="stroke:url(#paint20_linear_18_18924)" /></g><g
         filter="url(#filter6_ii_18_18924)"
         id="g24"><path
           d="m 28.058,2.82945 c 0.3778,-0.40206 1.0021,-0.44352 1.4297,-0.09493 0.4933,0.40214 0.5187,1.147 0.0539,1.58175 l -9.5161,8.90093 -0.8828,-0.8984 z"
           fill="url(#paint21_linear_18_18924)"
           id="path23"
           style="fill:url(#paint21_linear_18_18924)" /></g><path
         d="m 28.058,2.82945 c 0.3778,-0.40206 1.0021,-0.44352 1.4297,-0.09493 0.4933,0.40214 0.5187,1.147 0.0539,1.58175 l -9.5161,8.90093 -0.8828,-0.8984 z"
         fill="url(#paint22_radial_18_18924)"
         id="path24"
         style="fill:url(#paint22_radial_18_18924)" /><g
         filter="url(#filter7_ii_18_18924)"
         id="g25"><path
           d="M 3.77547,2.82945 C 3.39772,2.42739 2.77335,2.38593 2.34576,2.73452 1.85249,3.13666 1.82713,3.88152 2.29193,4.31627 l 9.51607,8.90093 0.8828,-0.8984 z"
           fill="#fec0a1"
           id="path25" /></g><path
         d="M 3.77547,2.82945 C 3.39772,2.42739 2.77335,2.38593 2.34576,2.73452 1.85249,3.13666 1.82713,3.88152 2.29193,4.31627 l 9.51607,8.90093 0.8828,-0.8984 z"
         fill="url(#paint23_radial_18_18924)"
         id="path26"
         style="fill:url(#paint23_radial_18_18924)" /><path
         d="M 3.77547,2.82945 C 3.39772,2.42739 2.77335,2.38593 2.34576,2.73452 1.85249,3.13666 1.82713,3.88152 2.29193,4.31627 l 9.51607,8.90093 0.8828,-0.8984 z"
         fill="url(#paint24_radial_18_18924)"
         id="path27"
         style="fill:url(#paint24_radial_18_18924)" /><g
         filter="url(#filter8_i_18_18924)"
         id="g28"><path
           d="m 13.2817,12.0204 c -0.501,-0.4932 -1.3069,-0.487 -1.8001,0.014 -0.4932,0.5009 -0.487,1.3068 0.0139,1.8001 l 1.0568,1.0405 c 0.5009,0.4932 1.3069,0.4869 1.8001,-0.014 0.4932,-0.5009 0.487,-1.3068 -0.014,-1.8001 z"
           fill="#fdb595"
           id="path28" /></g><path
         d="m 13.2817,12.0204 c -0.501,-0.4932 -1.3069,-0.487 -1.8001,0.014 -0.4932,0.5009 -0.487,1.3068 0.0139,1.8001 l 1.0568,1.0405 c 0.5009,0.4932 1.3069,0.4869 1.8001,-0.014 0.4932,-0.5009 0.487,-1.3068 -0.014,-1.8001 z"
         fill="url(#paint25_radial_18_18924)"
         id="path29"
         style="fill:url(#paint25_radial_18_18924)" /><path
         d="m 13.2817,12.0204 c -0.501,-0.4932 -1.3069,-0.487 -1.8001,0.014 -0.4932,0.5009 -0.487,1.3068 0.0139,1.8001 l 1.0568,1.0405 c 0.5009,0.4932 1.3069,0.4869 1.8001,-0.014 0.4932,-0.5009 0.487,-1.3068 -0.014,-1.8001 z"
         fill="url(#paint26_linear_18_18924)"
         id="path30"
         style="fill:url(#paint26_linear_18_18924)" /><path
         d="m 13.2817,12.0204 c -0.501,-0.4932 -1.3069,-0.487 -1.8001,0.014 -0.4932,0.5009 -0.487,1.3068 0.0139,1.8001 l 1.0568,1.0405 c 0.5009,0.4932 1.3069,0.4869 1.8001,-0.014 0.4932,-0.5009 0.487,-1.3068 -0.014,-1.8001 z"
         fill="url(#paint27_radial_18_18924)"
         id="path31"
         style="fill:url(#paint27_radial_18_18924)" /><g
         filter="url(#filter9_i_18_18924)"
         id="g32"><path
           d="m 18.5518,12.0204 c 0.501,-0.4932 1.3069,-0.487 1.8001,0.014 0.4932,0.5009 0.487,1.3068 -0.0139,1.8001 l -1.0568,1.0405 c -0.5009,0.4932 -1.3069,0.4869 -1.8001,-0.014 -0.4932,-0.5009 -0.487,-1.3068 0.014,-1.8001 z"
           fill="#ffbb98"
           id="path32" /></g><path
         d="m 18.5518,12.0204 c 0.501,-0.4932 1.3069,-0.487 1.8001,0.014 0.4932,0.5009 0.487,1.3068 -0.0139,1.8001 l -1.0568,1.0405 c -0.5009,0.4932 -1.3069,0.4869 -1.8001,-0.014 -0.4932,-0.5009 -0.487,-1.3068 0.014,-1.8001 z"
         fill="url(#paint28_radial_18_18924)"
         id="path33"
         style="fill:url(#paint28_radial_18_18924)" /><path
         d="m 18.5518,12.0204 c 0.501,-0.4932 1.3069,-0.487 1.8001,0.014 0.4932,0.5009 0.487,1.3068 -0.0139,1.8001 l -1.0568,1.0405 c -0.5009,0.4932 -1.3069,0.4869 -1.8001,-0.014 -0.4932,-0.5009 -0.487,-1.3068 0.014,-1.8001 z"
         fill="url(#paint29_radial_18_18924)"
         id="path34"
         style="fill:url(#paint29_radial_18_18924)" /><g
         filter="url(#filter10_f_18_18924)"
         id="g34"><rect
           x="12.7025"
           y="11.9331"
           width="2.46523"
           height="0.698246"
           rx="0.349123"
           transform="rotate(43.887,12.7025,11.9331)"
           fill="#ffe2af"
           id="rect34" /></g></g><path
       style="font-size:74.6667px;font-family:'Chela One';-inkscape-font-specification:'Chela One';fill:#e63c89;stroke-width:1.78656"
       d="m 180.25576,423.16943 q -2.98575,4.74079 -6.46046,7.75481 -3.51026,3.07046 -6.75897,4.09858 -6.25698,2.04997 -10.86835,0.48575 -4.16228,1.47745 -8.73377,-1.40167 -6.26463,-3.94546 -6.79893,-10.982 -0.5343,-7.03657 5.50829,-16.63104 6.00705,-9.53804 14.3943,-12.21699 8.3517,-2.62252 15.57578,1.9272 7.16764,4.51418 8.40225,11.44002 1.17819,6.8903 -4.26014,15.52534 z m -9.76822,-21.28626 q -2.14466,-1.3507 -5.14264,0.78121 -3.05441,2.09635 -6.4667,7.51442 -3.41228,5.41805 -3.06793,10.12791 0.28791,4.67429 2.54518,8.22417 4.82324,-4.52943 8.7687,-10.79407 8.10418,-12.86789 3.36339,-15.85364 z m -38.20655,-23.65559 q -1.15504,-2.5364 1.83577,-5.58218 2.10293,-2.14155 5.39647,-3.02051 3.29354,-0.87895 5.38751,1.17725 l 7.6689,8.27837 q 1.85603,1.82253 3.65758,2.84376 -0.62332,4.06185 -3.10013,6.58413 -2.47677,2.52228 -4.89786,0.79922 l -22.59322,25.76904 q -5.57702,-1.26985 -8.1469,-3.79334 -2.56988,-2.5235 -2.50132,-5.35401 -0.0258,-2.82967 3.66604,-6.5893 8.64536,-8.8042 19.03266,-17.95442 z m -19.14718,3.10905 q 2.35066,3.156 -3.64038,7.61825 -1.65823,1.23509 -3.59536,2.09573 l -3.54076,1.72242 q -5.731292,-5.46167 -8.91862,-9.74099 -1.434293,-1.92569 -0.893839,-3.99156 0.50061,-2.11935 1.932342,-3.43524 1.43172,-1.31588 2.39457,-2.03302 2.781552,-2.07176 5.186447,-3.19766 l 1.5365,-0.72858 q 0.9562,1.28379 1.44794,1.83236 l 17.98123,-11.81265 q -1.02222,-1.4841 -0.69795,-2.72363 0.28443,-1.29301 1.30077,-2.04999 2.35362,-1.75303 5.02375,-2.41115 l 1.08127,-0.22319 q 3.49463,4.13361 7.12021,9.00132 1.07572,1.44427 1.00415,2.91141 -0.11142,1.41364 -0.96838,2.3846 -0.89682,0.91746 -1.43174,1.31588 -1.60474,1.19525 -2.61997,1.61875 l -0.90824,0.34381 -1.86112,-1.94045 z M 80.412773,361.38419 q -1.714808,-3.6159 -0.190196,-6.62732 1.435786,-3.0431 7.569728,-6.76409 3.073508,-1.45759 9.610065,-5.88623 6.53655,-4.42865 8.56939,-6.05707 1.944,-1.66012 3.52952,-3.29786 -22.928051,6.44431 -36.126071,12.70336 -2.519983,-2.20058 -3.434544,-4.12906 -2.172094,-4.58013 4.517316,-7.75253 7.472842,-3.54393 21.601587,-7.21781 6.899412,-1.79561 12.533912,-1.58879 5.57422,0.23541 6.94607,3.12813 l 0.17148,0.36159 q 1.91359,1.23323 3.11395,3.76437 1.20038,2.53112 1.5626,3.7619 0.33364,1.17051 0.17586,3.01699 -0.18636,1.78621 -1.50535,3.51901 -1.40782,1.7011 -4.02405,4.12294 -4.50306,4.20246 -17.944606,12.1272 -2.140957,1.08915 -3.428255,2.7331 -1.376142,1.61227 -1.60724,2.68151 l -0.25969,1.00899 q -0.117437,-0.0919 -0.542386,0.25721 -0.453543,0.28891 -0.875389,0.48897 -0.482128,0.22864 -1.64953,0.41317 -1.195983,0.12429 -2.598235,0.12492 -1.430833,-0.0597 -2.98593,-1.31527 -1.615378,-1.22703 -2.729999,-3.57735 z m -5.238224,-64.47604 1.824807,9.22791 q 2.901372,-0.16011 7.13556,-1.09142 l 0.455987,-0.1003 q -2.774448,-11.68246 -3.032348,-12.855 1.556898,-0.68391 2.79458,-0.95614 4.234192,-0.93132 5.093861,2.97716 l 1.991581,9.05466 q 4.640697,-1.56707 4.863603,-4.27952 0.0808,-0.56412 -0.09114,-1.34581 -0.601777,-2.73594 -3.832528,-7.48875 0.459983,-1.94508 3.586766,-2.63282 3.061645,-0.67341 6.586952,1.69266 3.44582,2.31526 4.95026,9.1551 1.4328,6.51414 -1.23299,11.47121 -2.94201,5.56419 -12.582938,7.68471 -7.426113,1.63339 -14.114684,0.0997 l 0.488484,1.59988 q -1.190867,2.03754 -5.946189,3.08347 -9.640914,2.12054 -11.102361,-4.52388 -0.07164,-0.32571 -0.458494,-2.08453 -0.386854,-1.75881 -0.967639,-7.50424 -0.660262,-5.79624 -2.007081,-11.91953 1.782302,-1.21155 6.081629,-2.15718 4.234192,-0.93132 6.627427,-0.29674 2.328097,0.64891 2.88689,3.18943 z M 56.910448,275.92126 q 0.02326,-2.26764 1.040113,-3.85805 1.017537,-1.65712 3.897738,-2.82819 -5.234679,-3.38881 -5.164874,-10.1917 0.05406,-5.26889 4.022602,-8.49656 3.968537,-3.22768 11.171582,-3.15376 5.202214,0.0534 9.652974,1.8333 4.451451,1.71322 7.220478,4.87663 0.404273,-0.39607 3.626164,-2.36406 3.222567,-2.0347 5.716978,-4.61048 0.733635,0.007 2.060697,0.68817 1.26036,0.67995 2.11918,1.48919 0.79212,0.80855 1.50866,2.48345 0.64984,1.67422 0.62794,3.80845 -0.0445,4.33518 -3.79993,6.2977 l -8.311234,3.91683 q -0.07491,0.79965 -0.357432,2.33091 6.796045,0.73675 9.579436,2.49956 2.7167,1.76213 2.68248,5.09687 -0.0178,1.73407 -0.70254,3.4613 -0.75144,1.72653 -1.49398,2.58604 l -0.67584,0.86019 q -2.927735,-0.69706 -13.598922,-0.80656 -16.073482,-0.16493 -25.816416,0.26871 l -2.869936,0.17065 q -2.180408,-2.02343 -2.135918,-6.35859 z m 13.959464,-8.32792 q 2.803235,-0.17134 7.338495,-0.1248 4.468558,0.0458 8.534898,0.28769 -0.990469,-7.48079 -9.660813,-7.56976 -4.001693,-0.0411 -5.085927,1.61537 -1.084225,1.65642 -1.126653,5.7915 z m -6.875518,-29.32405 q -1.377896,-2.20229 -0.96734,-4.56807 0.410556,-2.36579 1.567368,-3.18047 1.156808,-0.81468 3.259729,-0.44974 4.074406,0.70708 10.463558,2.89897 l 2.308763,0.73914 q 0.243325,1.32844 0.07227,2.31418 -0.399151,2.30007 -3.090251,2.98388 -3.822372,0.96135 -13.614093,-0.73789 z m 39.635936,-38.03424 q 5.82219,1.93796 8.2289,7.16771 2.40673,5.22977 -0.0789,12.69737 -2.48564,7.4676 -5.64843,9.78906 -3.22608,2.3004 -5.88404,1.41568 -2.404818,-0.80047 -3.270006,-1.79141 -1.477158,-1.68672 -1.77297,-2.90992 2.656785,-1.85723 5.228866,-4.51592 2.59313,-2.72196 3.14081,-4.36736 0.54769,-1.6454 0.46298,-2.44686 -0.0847,-0.80146 -0.359,-1.03334 -0.33759,-0.25297 -0.97041,-0.46364 -1.20242,-0.40023 -2.847013,0.95036 -1.707869,1.32951 -3.668523,3.41846 -2.002873,2.00458 -4.258885,3.92492 -2.319296,1.89926 -5.482713,2.74429 -3.163427,0.84503 -6.264376,-0.18714 -3.164241,-1.05325 -5.337711,-3.39352 -2.173469,-2.34026 -3.144888,-5.12398 -2.995536,-1.13767 -4.241791,-5.41879 -1.225195,-4.34441 0.818087,-10.48304 3.749538,-11.26468 13.178965,-8.12603 5.758906,1.9169 6.162121,7.67482 -4.95565,2.21677 -9.887339,11.11967 3.754776,0.96862 7.297094,-1.6483 1.602455,-1.22402 3.225894,-2.72224 1.560151,-1.51929 3.225805,-2.93315 1.686723,-1.47715 3.457971,-2.57469 3.943177,-2.3429 8.689532,-0.76304 z m 41.28359,-41.15057 q 0.0884,0.65433 -0.31319,2.61229 -0.41426,1.86449 -1.95024,3.88059 -3.35488,4.40361 -10.82301,0.5587 -1.20249,2.01863 -3.18308,4.61835 -1.94018,2.54666 -2.62481,3.11512 3.02925,3.39787 3.54472,5.80297 0.55588,2.35205 -1.34387,4.84566 -0.92967,1.22027 -2.20294,2.01107 -1.27328,0.79081 -2.0615,0.94494 l -0.82865,0.20719 Q 99.767692,166.61464 97.4381,158.88651 q -0.752952,-2.75373 -0.288151,-4.24431 0.411749,-1.53101 1.179762,-2.53904 0.767993,-1.00805 1.023146,-1.23291 0.202123,-0.26527 0.282941,-0.37139 l -1.222794,-0.59618 q -0.09096,-0.32084 -0.207191,-0.82864 -0.128868,-0.60128 0.257616,-2.31923 0.386475,-1.71795 1.679931,-3.41574 2.66774,-3.50165 6.85649,-3.49674 4.1761,-0.0885 12.97564,4.09988 8.78691,4.09495 24.73378,13.98017 0.10358,0.41431 0.20468,1.16213 z m -24.30855,9.23477 q 1.08122,-1.85947 2.49593,-3.7164 1.41471,-1.85695 1.66987,-2.0818 -11.11122,-5.44651 -18.88755,-9.10698 6.31114,6.9044 14.72175,14.90518 z m 60.37858,-35.26769 -0.2194,0.15178 q -0.6883,1.93599 -2.88242,3.45381 -3.0169,2.087 -7.03614,-0.32316 -3.96438,-2.4481 -11.58393,-10.88342 8.00871,17.08735 3.12681,20.4645 -0.49367,0.34151 -0.75103,0.43844 -1.08918,2.2944 -3.77696,4.15373 -2.63294,1.82138 -5.73735,0.96814 -3.14236,-0.9081 -7.99602,-5.57962 -4.7988,-4.70945 -12.74257,-14.78583 -1.42089,-1.93676 -3.25129,-2.9414 -1.81351,-1.09744 -2.90606,-1.15268 l -1.03768,-0.0932 q -0.64507,-0.93249 -1.15489,-2.60738 -0.54775,-1.72973 -0.53459,-3.11757 -0.0247,-1.4427 0.8153,-3.15928 0.89494,-1.75451 2.75992,-3.04466 6.03381,-4.174 12.35456,2.97002 2.88837,3.35466 5.63735,7.21127 7.94751,11.37142 13.00817,15.16981 -6.09374,-16.54671 -13.69072,-29.05275 -0.75064,-0.61617 -1.39572,-1.54866 -0.64506,-0.93249 -0.7078,-2.43004 -0.0962,-2.36655 2.86589,-4.41561 3.0169,-2.087 5.59835,-1.5208 2.63629,0.52826 6.21632,4.29659 11.79355,14.46912 20.13068,21.597 -3.33314,-9.85958 -10.20126,-19.78793 -4.06017,-5.86924 -9.39848,-11.82754 0.73903,-2.21438 3.81078,-4.33932 1.42618,-0.98659 3.04621,-1.45846 1.67488,-0.509805 3.83853,0.5076 2.21853,0.97944 4.19169,3.83182 4.5155,6.52748 7.47861,13.15564 2.96311,6.62815 3.99475,11.75386 1.03164,5.12571 0.54094,8.87145 -0.43584,3.7078 -2.41054,5.07383 z m 29.23125,-43.46438 -9.02447,2.65392 q 0.4225,2.87491 1.73386,7.00723 l 0.14122,0.44501 q 11.38282,-3.82218 12.52715,-4.18533 0.82224,1.48848 1.20556,2.69639 1.31136,4.13231 -2.50312,5.34279 l -8.83679,2.80429 q 1.98135,4.47951 4.70283,4.45558 0.56912,0.0293 1.33201,-0.21277 2.67011,-0.84734 7.11045,-4.49569 1.97876,0.28174 2.94715,3.33329 0.94822,2.98798 -1.08849,6.71328 -1.99332,3.64155 -8.6686,5.7599 -6.3574,2.01748 -11.53576,-0.1879 -5.808,-2.42544 -8.79386,-11.83439 -2.29993,-7.24746 -1.37892,-14.04753 l -1.549,0.63152 q -2.13714,-1.0012 -3.60988,-5.64215 -2.98587,-9.408949 3.49868,-11.46678 0.31787,-0.100873 2.03437,-0.645595 1.7165,-0.544717 7.38561,-1.644009 5.71253,-1.183039 11.68849,-3.079468 1.36812,1.665122 2.69967,5.861012 1.31135,4.132313 0.89637,6.57323 -0.43517,2.37734 -2.91457,3.16415 z m 45.93779,10.97129 q 0.56741,6.10997 -3.25271,10.41687 -3.82013,4.3069 -11.65683,5.03465 -7.83669,0.72776 -11.23419,-1.23424 -3.40367,-2.0284 -3.6627,-4.81774 -0.23437,-2.52367 0.32492,-3.71437 0.95012,-2.03082 1.95109,-2.79362 2.76894,1.68544 6.23759,2.97097 3.53507,1.27937 5.2618,1.11902 1.72673,-0.16036 2.42644,-0.56026 0.6997,-0.39991 0.80169,-0.74431 0.0958,-0.41082 0.0341,-1.07494 -0.11718,-1.26184 -2.01516,-2.22433 -1.90416,-1.02891 -4.60527,-1.98381 -2.64086,-1.02748 -5.3064,-2.32061 -2.6717,-1.35954 -4.71771,-3.91594 -2.04601,-2.5564 -2.3482,-5.810618 -0.30838,-3.320637 0.96008,-6.251821 1.26846,-2.931184 3.42638,-4.940187 -0.1632,-3.200143 3.25513,-6.063033 3.48474,-2.869063 9.92678,-3.467303 11.82145,-1.097803 12.7404,8.797689 0.56124,6.043554 -4.54825,8.728569 -4.02274,-3.645552 -14.15734,-4.579994 0.62337,3.827267 4.44401,6.017907 1.76517,0.97483 3.78981,1.858578 2.01848,0.817333 3.98289,1.773663 2.0308,0.95016 3.74807,2.13039 3.73099,2.66787 4.19355,7.64882 z m 7.7377,-6.68546 q 0.85412,-5.537181 2.84358,-9.684464 1.99966,-4.213191 4.57151,-6.448496 4.92565,-4.369247 9.77875,-4.767939 3.23141,-3.010891 8.57083,-2.187282 7.31699,1.128649 10.60559,7.372334 3.28862,6.243689 1.56005,17.449887 -1.71839,11.14029 -8.34846,16.93381 -6.61991,5.7276 -15.05751,4.4261 -8.3717,-1.29134 -12.25883,-7.15493 -3.82122,-5.85343 -2.26551,-15.93902 z m 17.42788,15.64581 q 2.50492,0.38639 4.40779,-2.76194 1.96877,-3.13817 2.9449,-9.46638 0.97613,-6.32821 -1.21288,-10.51264 -2.12309,-4.17426 -5.60594,-6.533648 -2.6241,6.074012 -3.75274,13.391008 -2.31831,15.02949 3.21887,15.8836 z m 42.32032,-29.764156 q 0.95486,0.01496 2.48196,0.379007 1.58722,0.392937 3.27041,1.202028 1.74331,0.837992 2.17803,1.935008 1.13521,0.101654 2.75828,0.88185 3.42651,1.64708 2.91927,5.473483 -0.64708,4.42522 -7.27076,25.44063 12.23286,-17.13507 15.07758,-20.2819 2.87362,-3.20693 4.9949,-3.0013 1.37565,0.21724 2.97447,1.3558 1.73634,0.39061 3.47965,1.2286 4.44844,2.13832 4.98843,4.24799 0.60011,2.13857 -1.16256,5.80552 -0.058,0.12014 -7.65876,13.93149 -7.60098,13.81126 -10.63508,20.12323 -2.83336,0.0441 -6.50031,-1.71856 -3.66695,-1.76266 -2.02452,-5.48741 l 10.18176,-22.41325 q -15.62893,21.27493 -19.7768,19.2811 l -0.84161,-0.40455 q -1.74329,-0.83798 -2.1677,-3.18811 -1.0338,-5.08519 4.41314,-25.03815 -8.21244,14.77541 -12.9803,24.69422 -2.68424,0.0418 -5.20903,-1.17185 -4.20798,-2.02273 -2.65455,-5.71626 l 15.95042,-37.031271 q 0.35373,-0.273994 1.30627,-0.408149 0.98143,-0.194276 1.9074,-0.119195 z m 59.77236,55.214636 -6.98797,-6.29703 q -2.22759,1.86586 -5.06066,5.14754 l -0.3051,0.35341 q 9.2185,7.69395 10.12727,8.47849 -0.83721,1.48011 -1.66533,2.43937 -2.83306,3.28168 -5.86231,0.66655 l -7.01775,-6.0584 q -2.77785,4.03426 -1.33188,6.33995 0.27315,0.50015 0.879,1.02318 2.12047,1.83059 7.55421,3.70184 0.79654,1.83315 -1.29557,4.25654 -2.04853,2.37291 -6.28871,2.58942 -4.14612,0.2096 -9.44729,-4.36688 -5.04874,-4.35857 -5.88273,-9.92485 -0.97637,-6.2179 5.47431,-13.69003 4.96875,-5.75557 11.24366,-8.53313 l -1.34936,-0.98866 q -0.26661,-2.34492 2.91514,-6.0305 6.45067,-7.47214 11.60039,-3.02641 0.25242,0.21793 1.61559,1.39474 1.36316,1.17681 5.26922,5.43005 4.00013,4.24634 8.74594,8.34338 -0.70172,2.03765 -3.57836,5.36982 -2.83307,3.28168 -5.12968,4.20681 -2.25302,0.87464 -4.22203,-0.8252 z m 33.98018,17.49226 q 2.90888,0.622 5.12347,4.42647 2.24816,3.86213 -0.44386,7.59008 5.85646,0.91277 8.27238,5.06311 3.72455,6.39843 0.93878,12.8821 -2.72812,6.45012 -12.52752,12.15439 -9.74175,5.67073 -18.14744,4.62118 -8.40571,-1.04955 -12.19736,-7.56327 -2.08038,-3.5739 -1.54872,-7.43346 -3.26936,-0.18064 -4.91353,-3.00518 -0.87242,-1.49873 -1.1684,-3.333 -0.23834,-1.86783 -0.0405,-2.9863 l 0.14023,-1.08491 q 2.87186,-0.89997 12.09483,-6.26869 13.89208,-8.08664 22.03961,-13.44675 z m -23.26367,34.1478 q 1.37574,2.36338 5.19745,2.29965 3.85525,-0.006 9.38904,-3.22731 9.68411,-5.63715 6.46628,-14.87735 -2.17152,1.57275 -9.08874,5.5993 -6.91723,4.02654 -12.42607,6.22998 -0.41037,2.47696 0.46205,3.97569 z m 51.20719,17.04897 q 0.6051,2.18552 0.068,3.99521 -0.51929,1.87396 -2.96299,3.79627 5.96798,1.80806 7.78326,8.36465 1.40595,5.07814 -1.51454,9.27789 -2.92049,4.19975 -9.86276,6.12181 -5.01386,1.38816 -9.78336,0.90927 -4.7517,-0.41463 -8.28793,-2.68833 -0.27891,0.49246 -2.83044,3.27512 -2.53375,2.84694 -4.21805,6.01235 -0.70707,0.19577 -2.17064,-0.0911 -1.3993,-0.30466 -2.44851,-0.84466 -0.98493,-0.5578 -2.13693,-1.96904 -1.08773,-1.42904 -1.65722,-3.48601 -1.1568,-4.17821 1.90899,-7.10325 l 6.90294,-6.06363 q -0.14928,-0.78916 -0.30149,-2.33879 -6.73456,1.17247 -9.89705,0.24866 -3.09821,-0.94161 -3.98805,-4.15563 -0.46272,-1.67129 -0.28263,-3.52055 0.24435,-1.86705 0.72008,-2.89846 l 0.41141,-1.01363 q 3.0063,-0.14025 13.29114,-2.98776 15.49155,-4.28904 24.73409,-7.40163 l 2.71066,-0.95811 q 2.65516,1.34111 3.81196,5.51933 z m -11.11009,11.86535 q -2.64638,0.9403 -7.01744,2.15049 -4.30679,1.1924 -8.28127,2.08516 3.02174,6.91464 11.37817,4.60105 3.85682,-1.06782 4.44038,-2.95957 0.58356,-1.89176 -0.51984,-5.87713 z m -2.5179,30.65383 q 3.20127,-0.0397 6.27577,0.45592 3.1412,0.49474 4.61506,1.01011 l 1.54055,0.51456 5.05466,-1.19655 q 1.40634,0.44952 2.7625,2.23372 1.42533,1.98346 1.47736,6.18514 0.052,4.20167 -1.3279,5.88635 -1.37908,1.75137 -4.04681,1.7844 -1.40056,0.0173 -7.01684,-1.04708 -5.61628,-1.06442 -11.88546,-0.98679 -6.26917,0.0776 -9.78823,1.38856 -3.51823,1.37763 -3.48933,3.7119 0.0298,2.40096 3.44843,3.7594 3.41953,1.42515 10.02217,1.34339 6.60264,-0.0817 12.32589,-1.15317 5.79075,-1.00555 8.31271,-2.03733 l 2.52278,-0.96508 q 0.20007,-0.003 0.80611,0.45692 0.60685,0.52612 1.01445,1.1214 0.95352,1.58908 0.98573,4.19012 0.13625,11.0044 -19.60498,11.24883 -8.53674,0.1057 -14.62978,-1.75326 -6.02635,-1.85978 -9.68477,-6.41703 -3.5909,-4.49138 -3.67843,-11.56088 -0.11478,-9.27037 6.36751,-13.68635 6.48309,-4.34931 17.62088,-4.48721 z m 20.49647,56.64814 q 0.14248,0.94429 0.0349,2.51049 -0.1262,1.63026 -0.64709,3.42371 -0.53947,1.85749 -1.54992,2.46693 0.0867,1.13646 -0.4156,2.86585 -1.06035,3.65095 -4.91805,3.78074 -4.47136,0.0905 -26.2906,-2.98215 18.91556,9.2442 22.48786,11.5319 3.63636,2.30629 3.78286,4.43246 0.0122,1.39266 -0.84748,3.15714 -0.0994,1.77697 -0.63883,3.63446 -1.37659,4.73983 -3.36854,5.61986 -2.01055,0.94407 -5.91771,-0.19068 -0.12811,-0.0372 -15.00248,-5.2601 -14.87438,-5.22289 -21.59982,-7.17615 -0.51008,-2.78742 0.62468,-6.69458 1.13476,-3.90715 5.07912,-2.9005 l 23.78391,6.35194 q -23.55818,-11.91218 -22.2746,-16.33175 l 0.26043,-0.89673 q 0.53948,-1.8575 2.78763,-2.66311 4.84553,-1.85707 25.42306,0.22982 -15.92604,-5.66723 -26.49458,-8.73666 -0.48324,-2.64071 0.29807,-5.33088 1.30217,-4.48362 5.20109,-3.55962 l 39.15232,9.63467 q 0.3285,0.30377 0.61768,1.22121 0.35324,0.93605 0.43166,1.86173 z m -33.23554,79.72253 q -1.15796,1.46523 -2.08129,2.09574 -0.91236,0.72418 -2.45268,0.9521 -1.58168,0.28025 -3.62843,-0.57215 -4.4902,-1.84828 -12.33968,-8.05159 -2.66883,-2.10912 -3.62174,-2.9472 -0.31733,0.9394 -1.51663,2.45695 2.27133,3.58026 6.68565,8.42901 4.37296,4.90108 8.76866,8.37493 -0.0287,2.18768 -2.46861,5.27515 -2.48132,3.13979 -4.95849,3.47745 -2.51853,0.39 -4.82104,-1.42963 -4.23872,-3.34979 -7.69932,-8.97506 -3.44962,-5.53157 -4.18826,-10.62096 l -16.38996,-2.49619 q -0.2836,-0.39414 -0.58326,-1.73612 -0.29965,-1.34198 -0.28533,-2.43582 0.12821,-2.95911 2.2787,-5.68027 3.143,-3.97707 7.46269,-2.77361 l 12.42735,3.53021 q -6.45852,-5.27409 -8.71045,-9.09404 -0.88372,-1.4635 -0.77826,-2.99538 0.1578,-1.49054 0.62115,-2.39955 0.51566,-0.86766 1.63226,-2.28057 1.11659,-1.4129 2.3404,-2.31603 1.27612,-0.86177 2.01463,-1.04325 l 0.64482,-0.1705 q 5.34273,5.07238 12.40726,10.65536 12.71616,10.04937 19.38735,14.30134 l 2.45696,1.51663 q 0.0836,3.5516 -2.60445,6.95305 z m -39.65075,20.10739 q 2.99852,-2.54848 7.83632,3.14361 1.33903,1.5755 2.3223,3.45335 l 1.94624,3.42285 q -5.08232,6.07021 -9.14811,9.52577 -1.8296,1.55501 -3.92591,1.14834 -2.14714,-0.36347 -3.55225,-1.70771 -1.40512,-1.34427 -2.18262,-2.25907 -2.24612,-2.64276 -3.52413,-4.97039 l -0.82575,-1.48653 q 1.21974,-1.03667 1.73559,-1.56264 l -12.94304,-17.18548 q -1.41539,1.11543 -2.67318,0.87142 -1.30861,-0.2008 -2.12931,-1.16643 -1.90055,-2.23618 -2.7288,-4.85853 l -0.29216,-1.06471 q 3.90063,-3.75286 8.52547,-7.68358 1.3722,-1.16625 2.8409,-1.18904 1.41788,0.0204 2.44187,0.81324 0.97317,0.83604 1.40512,1.34426 1.29583,1.52468 1.78366,2.51061 l 0.40143,0.88429 -1.81692,1.98189 z m -33.7116,41.27121 q -1.34527,-0.83092 -3.75957,-4.90485 -2.3803,-4.01656 -2.52699,-6.48815 -0.17007,-2.38021 2.06773,-3.70637 l 2.52469,-1.49619 q -9.82935,-16.19373 -15.90756,-23.83365 1.82547,-3.33022 6.01416,-5.81252 2.40993,-1.42818 4.59462,-1.40486 2.12733,0.0573 2.98806,1.64058 4.96463,8.37738 12.75165,23.61058 3.66165,-2.32504 5.39578,-3.58531 2.30796,0.49299 4.79027,4.68168 2.51632,4.24608 2.34,7.21922 -0.14233,3.03052 -3.24081,4.86676 -0.2869,0.17002 -1.83614,1.08813 -3.9018,2.31229 -13.21428,6.74564 z"
       id="text4"
       aria-label="OLIVER'S AWESOME DRUM KIT" /></g></svg>
